<?xml version="1.0" standalone="no"?>
<!DOCTYPE svg PUBLIC "-//W3C//DTD SVG 20010904//EN"
 "http://www.w3.org/TR/2001/REC-SVG-20010904/DTD/svg10.dtd">
<svg version="1.0" xmlns="http://www.w3.org/2000/svg"
 width="700.000000pt" height="700.000000pt" viewBox="0 0 700.000000 700.000000"
 preserveAspectRatio="xMidYMid meet">
<metadata>
Created by potrace 1.14, written by Peter Selinger 2001-2017
</metadata>
<g transform="translate(0.000000,700.000000) scale(0.100000,-0.100000)"
fill="#000000" stroke="none">
<path d="M588 6411 c0 -3 -2 -332 -3 -730 l-1 -724 100 7 c107 6 110 7 226 32
295 65 585 241 780 474 30 36 57 67 60 70 48 48 203 343 215 410 1 3 9 32 19
65 18 60 21 70 32 135 4 19 8 44 10 55 3 11 7 63 10 116 l6 95 -726 0 c-399 0
-727 -2 -728 -5z"/>
<path d="M4007 5240 c-107 -27 -196 -130 -211 -246 l-7 -50 -44 -3 c-24 -1
-52 -3 -62 -5 -10 -2 -46 -7 -78 -11 -68 -8 -62 -7 -170 -30 -44 -9 -91 -19
-105 -21 -53 -10 -249 -68 -340 -101 -624 -227 -1088 -606 -1345 -1098 -68
-131 -142 -345 -160 -465 -19 -130 -25 -181 -25 -225 l0 -50 23 35 c33 53 55
78 137 161 266 267 670 364 1028 245 209 -70 400 -211 519 -383 20 -29 39 -53
42 -53 3 0 22 24 41 52 51 77 184 206 269 263 67 44 236 125 261 125 7 0 9
-328 8 -947 l-3 -947 -80 -17 c-44 -10 -96 -21 -115 -24 -19 -3 -145 -33 -280
-66 -747 -182 -1386 -417 -1687 -618 -90 -60 -163 -133 -163 -163 0 -12 315
-14 2475 -14 1777 -1 2475 2 2477 10 0 6 2 269 3 585 l1 574 -275 -7 c-152 -4
-307 -9 -346 -11 -38 -2 -119 -7 -180 -10 -60 -4 -130 -8 -155 -10 -25 -2 -81
-7 -125 -10 -44 -3 -98 -8 -120 -10 -22 -2 -71 -7 -108 -10 -37 -4 -76 -8 -85
-10 -9 -1 -48 -6 -87 -9 -74 -7 -132 -14 -174 -21 -14 -2 -51 -7 -81 -10 -30
-3 -82 -10 -115 -15 -33 -5 -82 -12 -110 -16 -27 -3 -57 -7 -65 -9 -13 -3 -15
101 -15 892 l0 895 26 -6 c47 -9 162 -66 245 -122 94 -62 212 -175 268 -257
22 -31 42 -57 45 -57 3 0 19 21 36 48 45 71 190 213 273 267 178 114 342 165
546 169 335 7 642 -145 842 -417 25 -34 47 -64 49 -65 5 -5 -3 121 -10 178
-65 491 -355 949 -815 1286 -158 115 -421 259 -605 331 -146 58 -396 133 -495
149 -14 2 -36 7 -50 10 -14 3 -38 8 -55 10 -16 3 -52 9 -80 14 -27 5 -81 12
-120 16 -38 4 -76 7 -84 9 -8 1 -16 15 -18 31 -17 153 -125 262 -267 270 -33
2 -78 -1 -99 -6z"/>
</g>
</svg>
