<?xml version="1.0"?>
<svg version="1.1" xmlns="http://www.w3.org/2000/svg" width="350px" height="100px" style="border: dashed 2px #aaa"><path fill="#" d="M50.953125,64.875q0.671875-3.046875,1.9375-5.828125t2.609375-5.5625q-0.734375-2.46875-1.53125-5.0546875t-1.921875-4.8984375q-0.125-0.09375-0.2578125-0.234375t-0.1328125-0.3125q0-0.21875,0.1796875-0.359375t0.421875-0.2265625t0.5-0.1171875t0.4140625-0.03125q1.3125,0,1.890625,1.21875q0.640625,1.375,1.1953125,2.8203125t1.0703125,2.8828125q0.1875-0.421875,0.4453125-1.140625t0.546875-1.515625t0.640625-1.6171875t0.765625-1.4921875t0.9140625-1.0859375t1.078125-0.4140625t0.75,0.109375t0.140625,0.3046875t-0.2109375,0.4296875t-0.2734375,0.5q-0.28125,0.671875-0.6796875,1.8203125t-0.8828125,2.4765625t-1.0078125,2.703125t-1.0703125,2.46875q1.125,3.6875,1.859375,7.4453125t1.6875,7.4921875q0.09375,0.359375,0.2890625,0.7578125t0.1953125,0.7578125q0,0.21875-0.2109375,0.34375t-0.484375,0.2109375t-0.5390625,0.1171875t-0.4375,0.03125q-0.828125,0-1.2890625-0.3671875t-0.734375-0.9296875t-0.390625-1.234375t-0.2109375-1.3125q-0.390625-2.203125-0.8203125-4.3984375t-0.9609375-4.3984375q-0.484375,1.09375-0.8203125,2.03125t-0.625,1.8359375t-0.5625,1.8125t-0.6171875,1.9609375q-0.15625,0.453125-0.59375,0.546875t-0.8125,0.09375q-0.390625,0-0.8359375-0.09375t-0.6171875-0.546875z M65.83859375,60.171875q0-1.0625,0.2890625-2.046875t0.8671875-1.7578125t1.4453125-1.234375t2.0078125-0.4609375q0.703125,0,1.5546875,0.2109375t1.6015625,0.625t1.25,1.0546875t0.5,1.46875q0,0.390625-0.1328125,0.59375t-0.5390625,0.203125l-0.171875-0.03125q0.453125,1.21875,0.78125,2.5t0.640625,2.5625q0.125,0.25,0.1875,0.4453125t0.0625,0.3828125q0,0.25-0.140625,0.4140625t-0.3671875,0.2421875t-0.46875,0.109375t-0.4296875,0.03125q-0.671875,0-1.0078125-0.234375t-0.484375-0.640625t-0.1796875-0.9140625t-0.125-1.0234375q-0.1875,0.609375-0.4921875,1.1875t-0.71875,1.0390625t-0.9765625,0.734375t-1.265625,0.2734375q-1.03125,0-1.734375-0.59375t-1.1328125-1.4609375t-0.625-1.8515625t-0.1953125-1.828125z M68.05734375,59.953125q0,0.578125,0.078125,1.21875t0.2578125,1.265625t0.4609375,1.1796875t0.703125,0.9765625q0.765625-0.828125,1.1328125-2.015625t0.65625-2.2890625t0.65625-1.890625t1.1328125-0.7890625q0.484375,0,0.8125,0.171875q-0.15625-0.390625-0.515625-0.7578125t-0.8046875-0.671875t-0.921875-0.5t-0.8984375-0.1953125q-0.125,0-0.2890625,0.0390625t-0.2578125,0.0078125q-0.640625,0.1875-1.0546875,0.6484375t-0.671875,1.0859375t-0.3671875,1.28125t-0.109375,1.234375z M79.3959375,60.25l0-0.453125q0-0.5625,0.03125-1.0625q0.03125-0.703125,0.03125-1.15625q0-0.25,0.03125-0.5703125t0.15625-0.5078125q0.15625-0.15625,0.3671875-0.3203125t0.4609375-0.1640625q0.796875,0,1.25,0.1796875t0.484375,0.7421875l0.0625,0.484375q0.28125-0.671875,0.75-1.6640625t1.0859375-1.890625t1.390625-1.53125t1.6328125-0.6328125q0.796875,0,1.3125,0.75t0.8203125,1.9140625t0.4296875,2.59375t0.171875,2.8046875t0.0625,2.5078125t0.109375,1.7109375q0.0625,0.484375,0.2109375,1.0234375t0.1484375,0.9921875q0,0.125-0.1796875,0.2421875t-0.3828125,0.1953125t-0.4140625,0.125t-0.3046875,0.046875q-0.609375,0-0.8671875-0.9140625t-0.3203125-2.2890625t-0.0625-2.9765625t-0.109375-2.9765625t-0.4453125-2.2890625t-1.0703125-0.9453125q-0.671875,0-1.390625,0.8671875t-1.234375,2.3046875q-0.5,1.4375-0.6875,3.265625q-0.0625,0.578125-0.0625,1.15625q0,1.265625,0.265625,2.53125q0.03125,0.21875-0.1796875,0.328125t-0.5234375,0.171875t-0.6328125,0.078125t-0.4921875,0.015625q-0.609375,0-0.9765625-0.4296875t-0.5703125-1.1015625t-0.2734375-1.5078125t-0.0859375-1.6484375z M92.95328125,50.25q0-0.21875,0.46875-0.375t1.0625-0.2578125t1.1484375-0.1484375t0.7578125-0.078125q0-0.421875,0.03125-0.8515625t0.171875-0.765625t0.4453125-0.5390625t0.8515625-0.203125q0.453125,0,0.6875,0.109375t0.5,0.453125q0.0625,0.1875,0.0625,0.359375l0,0.5234375t-0.03125,0.5390625q0.578125-0.0625,1.1484375-0.1484375t1.1484375-0.0859375q0.421875,0,0.578125,0.015625t0.3125,0.375q0.125,0.359375-0.3046875,0.546875t-1.03125,0.28125t-1.1953125,0.140625t-0.71875,0.046875q-0.1875,2.6875-0.3828125,5.328125t-0.1953125,5.359375q0,1.21875,0.078125,2.515625t0.4375,2.453125q0.09375,0.359375,0.3125,0.671875t0.21875,0.671875q0,0.21875-0.171875,0.34375t-0.4140625,0.2109375t-0.484375,0.1015625t-0.3984375,0.015625q-0.984375,0-1.5-0.734375t-0.7421875-1.7578125t-0.2421875-2.1015625t-0.015625-1.75q0-1.375,0.0546875-2.8125t0.1328125-2.84375t0.21875-2.75t0.328125-2.5q-0.546875,0.0625-1.0703125,0.140625t-1.0703125,0.078125q-0.125,0-0.3359375-0.015625t-0.3984375-0.078125t-0.3203125-0.171875t-0.1328125-0.3125z M104.90125,61.875l0-1.46875q0-0.796875,0.0390625-2.2578125t0.1015625-3.203125t0.171875-3.6328125t0.25-3.5703125t0.3359375-3.0078125t0.4453125-1.96875q0.15625-0.359375,0.515625-0.453125t0.703125-0.09375q0.546875,0,0.9609375,0.2421875t0.4140625,0.8828125l-0.28125,0.3125q-0.546875,3.609375-0.703125,7.25t-0.21875,7.28125q0.390625-0.609375,0.8828125-1.1953125t1.09375-1.0390625t1.296875-0.7265625t1.5234375-0.2734375q1.0625,0,1.7578125,0.640625t1.1484375,1.6640625t0.671875,2.2890625t0.3359375,2.53125t0.1640625,2.3984375t0.140625,1.8828125q-0.296875,0.40625-0.875,0.40625l-0.046875,0q-0.25,0-0.546875-0.0625t-0.390625-0.3125l0.03125,0.03125q-0.21875-0.484375-0.296875-1.3984375t-0.125-2.015625t-0.1640625-2.2578125t-0.3515625-2.09375t-0.6875-1.546875t-1.21875-0.640625l-0.09375,0q-0.921875,0-1.546875,0.5625q-0.65625,0.59375-1.0625,1.5625t-0.625,2.15625t-0.3359375,2.2890625t-0.1796875,2t-0.15625,1.3203125q-0.09375,0.359375-0.5546875,0.4765625t-0.7890625,0.1171875q-0.765625,0-1.25-0.4375q-0.359375-0.859375-0.421875-2.140625t-0.0625-2.5z M119.84921875,59.796875q0-1.4375,0.3359375-2.8203125t0.5703125-2.7578125q0.0625-0.359375,0.4921875-0.4453125t0.7265625-0.0859375q0.515625,0,0.828125,0.15625q0.125,0.0625,0.234375,0.140625t0.109375,0.203125q0,1.34375-0.3203125,2.625t-0.3203125,2.71875q0,0.484375,0.0703125,0.9140625t0.1328125,0.8515625l0.09375,0.453125q0,0.125,0.015625,0.21875t0.046875,0.21875q0,0.28125-0.3984375,0.3828125t-0.6953125,0.1015625q-0.453125,0-0.8359375-0.1796875t-0.6015625-0.6171875l-0.21875-0.453125q-0.1875-0.359375-0.1875-0.8046875t-0.078125-0.8203125z M120.84921875,50.390625l0-0.296875q0-0.734375,0.3671875-1.3125t1.1015625-0.578125q0.09375,0,0.1796875,0.015625t0.1796875,0.015625q0.1875,0.03125,0.4921875,0.1484375t0.3046875,0.3671875l0,0.03125q-0.0625,0.125-0.078125,0.2578125t-0.078125,0.2265625l0.03125-0.03125q-0.1875,0.484375-0.3046875,0.78125t-0.2578125,0.4765625t-0.3515625,0.2578125t-0.6015625,0.078125q-0.0625,0-0.21875-0.015625t-0.3359375-0.0625t-0.3046875-0.125t-0.125-0.234375z M126.3596875,60.46875q0-0.890625,0.2265625-1.8359375t0.71875-1.703125t1.2421875-1.234375t1.8125-0.4765625q0.796875,0,1.6796875,0.2734375t1.6171875,0.78125t1.1953125,1.2421875t0.4609375,1.640625q0,1.09375-0.3984375,2.078125t-1.1171875,1.7578125t-1.6796875,1.21875t-2.0859375,0.4453125q-0.921875,0-1.609375-0.3359375t-1.1484375-0.8984375t-0.6875-1.328125t-0.2265625-1.625z M128.6565625,60.4375q0,0.28125,0.0859375,0.828125t0.2578125,1.0703125t0.4453125,0.90625t0.6640625,0.3515625q0.828125-0.09375,1.3671875-0.5390625t0.875-1.0859375t0.46875-1.390625t0.1328125-1.421875q0-0.859375-0.3359375-1.4375t-1.1015625-0.9375q0,0.03125,0.03125,0.03125t0.03125-0.03125l-0.390625-0.09375q-0.15625-0.0625-0.3828125-0.140625t-0.4453125-0.34375q-0.609375,0.21875-0.9453125,0.5625t-0.5078125,0.8359375t-0.2109375,1.1796875t-0.0390625,1.65625z M137.55765625,50.25q0-0.21875,0.46875-0.375t1.0625-0.2578125t1.1484375-0.1484375t0.7578125-0.078125q0-0.421875,0.03125-0.8515625t0.171875-0.765625t0.4453125-0.5390625t0.8515625-0.203125q0.453125,0,0.6875,0.109375t0.5,0.453125q0.0625,0.1875,0.0625,0.359375l0,0.5234375t-0.03125,0.5390625q0.578125-0.0625,1.1484375-0.1484375t1.1484375-0.0859375q0.421875,0,0.578125,0.015625t0.3125,0.375q0.125,0.359375-0.3046875,0.546875t-1.03125,0.28125t-1.1953125,0.140625t-0.71875,0.046875q-0.1875,2.6875-0.3828125,5.328125t-0.1953125,5.359375q0,1.21875,0.078125,2.515625t0.4375,2.453125q0.09375,0.359375,0.3125,0.671875t0.21875,0.671875q0,0.21875-0.171875,0.34375t-0.4140625,0.2109375t-0.484375,0.1015625t-0.3984375,0.015625q-0.984375,0-1.5-0.734375t-0.7421875-1.7578125t-0.2421875-2.1015625t-0.015625-1.75q0-1.375,0.0546875-2.8125t0.1328125-2.84375t0.21875-2.75t0.328125-2.5q-0.546875,0.0625-1.0703125,0.140625t-1.0703125,0.078125q-0.125,0-0.3359375-0.015625t-0.3984375-0.078125t-0.3203125-0.171875t-0.1328125-0.3125z M149.505625,59.796875q0-1.4375,0.3359375-2.8203125t0.5703125-2.7578125q0.0625-0.359375,0.4921875-0.4453125t0.7265625-0.0859375q0.515625,0,0.828125,0.15625q0.125,0.0625,0.234375,0.140625t0.109375,0.203125q0,1.34375-0.3203125,2.625t-0.3203125,2.71875q0,0.484375,0.0703125,0.9140625t0.1328125,0.8515625l0.09375,0.453125q0,0.125,0.015625,0.21875t0.046875,0.21875q0,0.28125-0.3984375,0.3828125t-0.6953125,0.1015625q-0.453125,0-0.8359375-0.1796875t-0.6015625-0.6171875l-0.21875-0.453125q-0.1875-0.359375-0.1875-0.8046875t-0.078125-0.8203125z M150.505625,50.390625l0-0.296875q0-0.734375,0.3671875-1.3125t1.1015625-0.578125q0.09375,0,0.1796875,0.015625t0.1796875,0.015625q0.1875,0.03125,0.4921875,0.1484375t0.3046875,0.3671875l0,0.03125q-0.0625,0.125-0.078125,0.2578125t-0.078125,0.2265625l0.03125-0.03125q-0.1875,0.484375-0.3046875,0.78125t-0.2578125,0.4765625t-0.3515625,0.2578125t-0.6015625,0.078125q-0.0625,0-0.21875-0.015625t-0.3359375-0.0625t-0.3046875-0.125t-0.125-0.234375z M156.32859375,56.140625q0-0.640625,0.375-1.1015625t0.9140625-0.75t1.1796875-0.4296875t1.1875-0.140625q0.421875,0,1.125,0.125t1.375,0.375t1.1640625,0.65625t0.4921875,0.953125q0,0.25-0.1875,0.4453125t-0.390625,0.1953125q-0.421875,0-0.765625-0.2734375t-0.7109375-0.578125t-0.8046875-0.578125t-0.984375-0.2734375t-0.9921875,0.3515625t-0.4453125,0.9296875q0,0.953125,0.671875,1.8671875t1.4765625,1.921875t1.4765625,2.1171875t0.671875,2.453125q0,0.578125-0.2421875,0.9765625t-0.640625,0.6484375t-0.8984375,0.3828125t-0.96875,0.1328125q-0.515625,0-1.203125-0.2421875t-1.296875-0.640625t-1.0234375-0.9296875t-0.4140625-1.109375q0-0.28125,0.3984375-0.359375t0.5859375-0.078125q0.09375,0,0.2890625,0.0625t0.3828125,0.140625t0.3359375,0.171875t0.1171875,0.203125q0.15625,0.1875,0.4765625,0.5546875t0.640625,0.59375t0.5625,0.1640625t0.2421875-0.703125q0-1.21875-0.65625-2.2421875t-1.4296875-2t-1.4296875-1.9375t-0.65625-2.0546875z"/><path fill="#" d="M188.859375,65.640625q0-0.09375,0.0625-0.6640625t0.1640625-1.390625t0.2265625-1.765625t0.21875-1.7890625t0.1640625-1.484375t0.0703125-0.859375q-0.125-0.0625-0.3046875-0.1796875t-0.1796875-0.2734375q0-0.21875,0.2109375-0.3515625t0.3671875-0.1953125q0.0625-0.796875,0.15625-2.21875t0.2890625-3.0703125t0.546875-3.34375t0.9296875-3.078125t1.390625-2.2578125t2-0.875t1.96875,0.75t1.2734375,1.953125t0.75,2.671875t0.390625,2.921875t0.1640625,2.71875t0.0625,2.03125q0.03125,0.484375,0.234375,0.6484375t0.4453125,0.2265625t0.4375,0.140625t0.1953125,0.390625q0,0.359375-0.4375,0.5t-0.6875,0.171875q0.15625,1.953125,0.4296875,3.84375t0.7265625,3.8125q0.0625,0.359375,0.171875,0.7265625t0.109375,0.7109375q0,0.25-0.171875,0.4140625t-0.4453125,0.2578125t-0.546875,0.125t-0.4609375,0.03125q-0.703125,0-1.1875-0.265625t-0.640625-1.015625q-0.421875-2.015625-0.828125-4.234375q-0.34375-1.921875-0.34375-3.734375q0-0.28125,0.015625-0.5625q-1.3125,0-2.640625,0.0625t-2.546875,0.46875q-0.03125,0.421875-0.15625,1.59375t-0.28125,2.515625t-0.3203125,2.5703125t-0.1953125,1.7421875q-0.03125,0.21875-0.3203125,0.4140625t-0.625,0.2109375t-0.59375-0.2109375t-0.2578125-0.8046875z M191.78125,56.171875q1.21875-0.28125,2.4453125-0.328125t2.4765625-0.109375q-0.0625-0.390625-0.03125-0.8046875t0.03125-0.8359375q0-0.921875-0.046875-2.140625t-0.140625-2.46875t-0.2421875-2.4609375t-0.3359375-2.15625t-0.3984375-1.5078125t-0.4609375-0.5625q-0.484375,0.03125-0.9140625,0.8359375t-0.78125,2.046875t-0.640625,2.78125t-0.484375,3.0078125t-0.3203125,2.734375t-0.15625,1.96875z M204.60421875,54.515625q0-0.734375,0.2890625-1.0859375t1.0546875-0.3515625q0.453125,0,0.8515625,0.1875t0.3984375,0.796875q0.0625,0.890625,0.0625,1.8671875t0.171875,1.8515625q0.390625-0.640625,0.8828125-1.28125t1.0859375-1.140625t1.296875-0.8046875t1.53125-0.3046875q1.125,0,1.90625,0.46875t1.2890625,1.21875t0.734375,1.6953125t0.2265625,1.8984375q0,1.46875-0.4453125,2.3984375t-1.1796875,1.4609375t-1.6640625,0.71875t-1.8671875,0.1875q-0.828125,0-1.546875-0.3203125t-1-1.2109375q0-0.25,0.3671875-0.3125t0.5234375-0.0625q0.515625,0,0.765625,0.28125q0.1875,0.21875,0.4140625,0.4453125t0.4765625,0.2265625q0.484375,0,1.015625-0.2734375t0.9765625-0.71875t0.75-1.0546875t0.3046875-1.25q0-0.546875-0.09375-1.359375t-0.3203125-1.5625t-0.625-1.296875t-1.0078125-0.546875q-0.921875,0-1.6640625,0.84375t-1.234375,2.03125t-0.765625,2.46875t-0.2734375,2.140625t0.109375,2.171875t0.2265625,2.7265625t0.2265625,2.7265625t0.109375,2.171875q0,0.21875-0.1796875,0.3515625t-0.4296875,0.2109375t-0.5078125,0.09375t-0.3828125,0.015625q-0.421875,0-0.8828125-0.09375t-0.6328125-0.578125q-0.21875-0.765625-0.40625-2.1796875t-0.3359375-3.125t-0.2578125-3.59375t-0.1875-3.6328125t-0.1171875-3.203125t-0.0390625-2.3125z M219.5834375,60.171875q0-1.0625,0.2890625-2.046875t0.8671875-1.7578125t1.4453125-1.234375t2.0078125-0.4609375q0.703125,0,1.5546875,0.2109375t1.6015625,0.625t1.25,1.0546875t0.5,1.46875q0,0.390625-0.1328125,0.59375t-0.5390625,0.203125l-0.171875-0.03125q0.453125,1.21875,0.78125,2.5t0.640625,2.5625q0.125,0.25,0.1875,0.4453125t0.0625,0.3828125q0,0.25-0.140625,0.4140625t-0.3671875,0.2421875t-0.46875,0.109375t-0.4296875,0.03125q-0.671875,0-1.0078125-0.234375t-0.484375-0.640625t-0.1796875-0.9140625t-0.125-1.0234375q-0.1875,0.609375-0.4921875,1.1875t-0.71875,1.0390625t-0.9765625,0.734375t-1.265625,0.2734375q-1.03125,0-1.734375-0.59375t-1.1328125-1.4609375t-0.625-1.8515625t-0.1953125-1.828125z M221.8021875,59.953125q0,0.578125,0.078125,1.21875t0.2578125,1.265625t0.4609375,1.1796875t0.703125,0.9765625q0.765625-0.828125,1.1328125-2.015625t0.65625-2.2890625t0.65625-1.890625t1.1328125-0.7890625q0.484375,0,0.8125,0.171875q-0.15625-0.390625-0.515625-0.7578125t-0.8046875-0.671875t-0.921875-0.5t-0.8984375-0.1953125q-0.125,0-0.2890625,0.0390625t-0.2578125,0.0078125q-0.640625,0.1875-1.0546875,0.6484375t-0.671875,1.0859375t-0.3671875,1.28125t-0.109375,1.234375z M233.12515625,55.796875q0-0.640625,0.2265625-1.078125t0.9609375-0.4375q0.28125,0,0.703125,0.0859375t0.484375,0.4296875q0.15625,0.921875,0.171875,2t0.109375,2.03125q0.359375-0.703125,0.921875-1.515625t1.28125-1.5t1.5625-1.140625t1.71875-0.453125q0.0625,0,0.234375,0.046875t0.3203125,0.1328125t0.1796875,0.1953125t-0.171875,0.203125q-0.0625,0.1875-0.265625,0.2265625t-0.359375,0.0390625q-0.09375,0-0.296875-0.078125q-1.15625,0.609375-1.96875,1.65625t-1.328125,2.3203125t-0.75,2.6875t-0.234375,2.7578125q0,0.671875-0.3046875,0.8125t-0.9765625,0.140625q-0.359375,0-0.7578125-0.078125t-0.5546875-0.5q-0.28125-0.890625-0.4609375-2.046875t-0.2734375-2.3828125t-0.1328125-2.4140625t-0.0390625-2.140625z M243.58875,50.25q0-0.21875,0.46875-0.375t1.0625-0.2578125t1.1484375-0.1484375t0.7578125-0.078125q0-0.421875,0.03125-0.8515625t0.171875-0.765625t0.4453125-0.5390625t0.8515625-0.203125q0.453125,0,0.6875,0.109375t0.5,0.453125q0.0625,0.1875,0.0625,0.359375l0,0.5234375t-0.03125,0.5390625q0.578125-0.0625,1.1484375-0.1484375t1.1484375-0.0859375q0.421875,0,0.578125,0.015625t0.3125,0.375q0.125,0.359375-0.3046875,0.546875t-1.03125,0.28125t-1.1953125,0.140625t-0.71875,0.046875q-0.1875,2.6875-0.3828125,5.328125t-0.1953125,5.359375q0,1.21875,0.078125,2.515625t0.4375,2.453125q0.09375,0.359375,0.3125,0.671875t0.21875,0.671875q0,0.21875-0.171875,0.34375t-0.4140625,0.2109375t-0.484375,0.1015625t-0.3984375,0.015625q-0.984375,0-1.5-0.734375t-0.7421875-1.7578125t-0.2421875-2.1015625t-0.015625-1.75q0-1.375,0.0546875-2.8125t0.1328125-2.84375t0.21875-2.75t0.328125-2.5q-0.546875,0.0625-1.0703125,0.140625t-1.0703125,0.078125q-0.125,0-0.3359375-0.015625t-0.3984375-0.078125t-0.3203125-0.171875t-0.1328125-0.3125z M255.57578125,56.2578125q-0.0390625-0.5234375,0.0625-0.9609375t0.40625-0.7109375t0.9765625-0.2734375q0.15625,0,0.3828125,0.0390625t0.4453125,0.1015625t0.3671875,0.1875t0.1484375,0.34375l0,1.765625q0.609375-0.703125,1.328125-1.0078125t1.640625-0.3046875q0.703125,0,1.390625,0.3203125t1.296875,0.8515625t1.0546875,1.171875t0.6484375,1.28125q0.125-0.578125,0.28125-1.4140625t0.4609375-1.6015625t0.8046875-1.3125t1.328125-0.546875q0.890625,0,1.5,0.640625t0.9921875,1.6640625t0.578125,2.2890625t0.2890625,2.5t0.09375,2.3046875l0,1.6796875q0,0.1875-0.140625,0.3046875t-0.3515625,0.1796875t-0.4375,0.078125t-0.3515625,0.015625q-0.484375,0-0.8828125-0.1484375t-0.3984375-0.7578125l0-1.40625t-0.03125-1.8203125t-0.109375-1.953125t-0.203125-1.7734375t-0.3203125-1.28125t-0.4765625-0.5q-0.390625,0-0.5625,0.4375t-0.2890625,1.109375t-0.1796875,1.421875t-0.171875,1.421875t-0.3515625,1.1015625t-0.6640625,0.4296875q-0.453125,0-0.796875-0.4296875t-0.6796875-1.0703125t-0.671875-1.375t-0.7421875-1.375q-0.40625-0.65625-0.875-1.0625q-0.421875-0.390625-0.953125-0.375l-0.078125,0q-0.703125,0.03125-1.1015625,0.5078125t-0.609375,1.1640625t-0.2578125,1.4765625t-0.046875,1.3828125q0,0.5625,0.09375,1.3125q0.0625,0.5,0.0625,0.953125q0,0.234375-0.015625,0.453125q-0.046875,0.65625-0.3515625,1.1015625t-1.1328125,0.4453125q-0.3125,0-0.78125-0.0625t-0.625-0.421875q-0.359375-0.640625-0.546875-1.6171875t-0.28125-2.015625t-0.109375-2.0625t-0.015625-1.7578125q0-0.515625-0.0390625-1.0390625z M275.2815625,60.8125q0-1.09375,0.2421875-2.578125t0.8203125-2.8125t1.5234375-2.2578125t2.3828125-0.9296875q1.34375,0,2.015625,0.7734375t0.671875,2.0859375q0,0.859375-0.3203125,1.8828125t-0.9140625,1.9375t-1.40625,1.5234375t-1.8125,0.609375l-0.40625-0.03125q0,0.421875,0.125,1.1328125t0.3671875,1.4140625t0.625,1.234375t0.9296875,0.53125q0.796875,0,1.53125-0.640625t1.390625-1.421875t1.21875-1.421875t1.03125-0.640625q0.25,0,0.515625,0.078125t0.296875,0.4375q0,0.21875-0.1171875,0.359375t-0.2109375,0.3125q-0.484375,0.828125-1.0546875,1.578125t-1.2890625,1.359375t-1.5703125,0.9609375t-1.8828125,0.3515625q-1.34375,0-2.234375-0.4765625t-1.4375-1.28125t-0.7890625-1.859375t-0.2421875-2.2109375z M278.0784375,59.625l0.4375,0.390625q0.3125,0.28125,0.625,0.125t0.5625-0.5703125t0.4609375-1.0234375t0.375-1.25t0.2421875-1.25t0.078125-1.015625l0-0.53125t-0.046875-0.5625t-0.1640625-0.4453125t-0.3671875-0.2265625q-0.078125-0.015625-0.140625-0.015625q-0.53125,0-0.90625,0.671875q-0.40625,0.75-0.65625,1.8203125t-0.359375,2.1953125t-0.140625,1.6875z M288.35453125,60.25l0-0.453125q0-0.5625,0.03125-1.0625q0.03125-0.703125,0.03125-1.15625q0-0.25,0.03125-0.5703125t0.15625-0.5078125q0.15625-0.15625,0.3671875-0.3203125t0.4609375-0.1640625q0.796875,0,1.25,0.1796875t0.484375,0.7421875l0.0625,0.484375q0.28125-0.671875,0.75-1.6640625t1.0859375-1.890625t1.390625-1.53125t1.6328125-0.6328125q0.796875,0,1.3125,0.75t0.8203125,1.9140625t0.4296875,2.59375t0.171875,2.8046875t0.0625,2.5078125t0.109375,1.7109375q0.0625,0.484375,0.2109375,1.0234375t0.1484375,0.9921875q0,0.125-0.1796875,0.2421875t-0.3828125,0.1953125t-0.4140625,0.125t-0.3046875,0.046875q-0.609375,0-0.8671875-0.9140625t-0.3203125-2.2890625t-0.0625-2.9765625t-0.109375-2.9765625t-0.4453125-2.2890625t-1.0703125-0.9453125q-0.671875,0-1.390625,0.8671875t-1.234375,2.3046875q-0.5,1.4375-0.6875,3.265625q-0.0625,0.578125-0.0625,1.15625q0,1.265625,0.265625,2.53125q0.03125,0.21875-0.1796875,0.328125t-0.5234375,0.171875t-0.6328125,0.078125t-0.4921875,0.015625q-0.609375,0-0.9765625-0.4296875t-0.5703125-1.1015625t-0.2734375-1.5078125t-0.0859375-1.6484375z M301.911875,50.25q0-0.21875,0.46875-0.375t1.0625-0.2578125t1.1484375-0.1484375t0.7578125-0.078125q0-0.421875,0.03125-0.8515625t0.171875-0.765625t0.4453125-0.5390625t0.8515625-0.203125q0.453125,0,0.6875,0.109375t0.5,0.453125q0.0625,0.1875,0.0625,0.359375l0,0.5234375t-0.03125,0.5390625q0.578125-0.0625,1.1484375-0.1484375t1.1484375-0.0859375q0.421875,0,0.578125,0.015625t0.3125,0.375q0.125,0.359375-0.3046875,0.546875t-1.03125,0.28125t-1.1953125,0.140625t-0.71875,0.046875q-0.1875,2.6875-0.3828125,5.328125t-0.1953125,5.359375q0,1.21875,0.078125,2.515625t0.4375,2.453125q0.09375,0.359375,0.3125,0.671875t0.21875,0.671875q0,0.21875-0.171875,0.34375t-0.4140625,0.2109375t-0.484375,0.1015625t-0.3984375,0.015625q-0.984375,0-1.5-0.734375t-0.7421875-1.7578125t-0.2421875-2.1015625t-0.015625-1.75q0-1.375,0.0546875-2.8125t0.1328125-2.84375t0.21875-2.75t0.328125-2.5q-0.546875,0.0625-1.0703125,0.140625t-1.0703125,0.078125q-0.125,0-0.3359375-0.015625t-0.3984375-0.078125t-0.3203125-0.171875t-0.1328125-0.3125z M313.85984375,56.140625q0-0.640625,0.375-1.1015625t0.9140625-0.75t1.1796875-0.4296875t1.1875-0.140625q0.421875,0,1.125,0.125t1.375,0.375t1.1640625,0.65625t0.4921875,0.953125q0,0.25-0.1875,0.4453125t-0.390625,0.1953125q-0.421875,0-0.765625-0.2734375t-0.7109375-0.578125t-0.8046875-0.578125t-0.984375-0.2734375t-0.9921875,0.3515625t-0.4453125,0.9296875q0,0.953125,0.671875,1.8671875t1.4765625,1.921875t1.4765625,2.1171875t0.671875,2.453125q0,0.578125-0.2421875,0.9765625t-0.640625,0.6484375t-0.8984375,0.3828125t-0.96875,0.1328125q-0.515625,0-1.203125-0.2421875t-1.296875-0.640625t-1.0234375-0.9296875t-0.4140625-1.109375q0-0.28125,0.3984375-0.359375t0.5859375-0.078125q0.09375,0,0.2890625,0.0625t0.3828125,0.140625t0.3359375,0.171875t0.1171875,0.203125q0.15625,0.1875,0.4765625,0.5546875t0.640625,0.59375t0.5625,0.1640625t0.2421875-0.703125q0-1.21875-0.65625-2.2421875t-1.4296875-2t-1.4296875-1.9375t-0.65625-2.0546875z"/></svg>
